<?xml version="1.0" encoding="UTF-8"?><svg id="b" xmlns="http://www.w3.org/2000/svg" xmlns:xlink="http://www.w3.org/1999/xlink" viewBox="0 0 111.97 121.3"><defs><style>.h{fill:url(#f);stroke:url(#g);}.h,.i,.j{stroke-miterlimit:10;}.h,.j{stroke-width:.99px;}.k{fill:#fff;}.i{fill:none;stroke:#fff;}.j{fill:url(#d);stroke:url(#e);}</style><radialGradient id="d" cx="55.98" cy="79.24" fx="55.98" fy="79.24" r="14.57" gradientUnits="userSpaceOnUse"><stop offset="0" stop-color="#fff2db"/><stop offset=".31" stop-color="#d7b189"/><stop offset=".75" stop-color="#91562d"/><stop offset=".78" stop-color="#8d5027"/><stop offset="1" stop-color="#541513"/></radialGradient><radialGradient id="e" r="15.06" xlink:href="#d"/><radialGradient id="f" cy="31.2" fy="31.2" xlink:href="#d"/><radialGradient id="g" cy="31.2" fy="31.2" r="15.06" xlink:href="#d"/></defs><g id="c"><path class="k" d="M.58,58.2h110.8c-.84,22.01-14.48,40.71-33.68,48.87v13.72h-43.39v-13.72C15.06,98.91,1.42,80.21.58,58.2Z"/><path class="i" d="M111.38,58.2c.08-.71.08-1.46.08-2.22C111.47,25.35,86.61.5,55.98.5S.5,25.35.5,55.98c0,.75,0,1.51.08,2.22.84,22.01,14.48,40.71,33.73,48.87v13.72h43.39v-13.72c19.21-8.16,32.85-26.86,33.68-48.87Z"/><polyline class="i" points=".54 58.2 .58 58.2 111.38 58.2 111.47 58.2"/><circle class="j" cx="55.98" cy="79.24" r="14.57"/><circle class="h" cx="55.98" cy="31.2" r="14.57"/></g></svg>