<?xml version="1.0" encoding="UTF-8"?><svg id="b" xmlns="http://www.w3.org/2000/svg" viewBox="0 0 169.48 169.48"><defs><style>.d,.e,.f,.g{fill:none;stroke:#003607;stroke-miterlimit:10;}.d,.f{opacity:.5;}.d,.g{stroke-width:.99px;}.e{stroke-width:1.42px;}.f{stroke-width:.71px;}.h{fill:#346134;}</style></defs><g id="c"><rect class="h" x="0" y="0" width="169.48" height="169.48"/><polyline class="d" points="58.63 169.48 58.63 86.67 80.41 64.89 80.41 20.15 86.63 14.52 109.15 14.52 109.15 169.48"/><polyline class="e" points="50.85 169.48 50.85 86.67 72.63 64.89 72.63 20.15 78.85 14.52 114.78 14.52 114.78 169.48"/><polyline class="g" points="114.78 14.52 109.15 7.7 109.15 0"/><path class="e" d="M114.78,0v7.7l5.63,6.81v73.07l19.39,19.39v30.94c0,2.9,2.35,5.26,5.26,5.26h6.35c2.9,0,5.26-2.35,5.26-5.26V53.22h12.81"/><polyline class="f" points="50.19 0 50.19 44.42 37.38 57.22 0 57.22"/><polyline class="f" points="0 49.22 34.07 49.22 42.19 41.1 42.19 0"/><polyline class="d" points="48.19 0 48.19 43.59 36.55 55.22 0 55.22"/><polyline class="d" points="0 51.22 34.89 51.22 44.19 41.93 44.19 0"/><polyline class="e" points="0 53.22 35.72 53.22 46.19 42.76 46.19 0"/><polyline class="f" points="127.33 0 127.33 44.42 140.14 57.22 169.48 57.22"/><polyline class="f" points="169.48 49.22 143.45 49.22 135.33 41.1 135.33 0"/><polyline class="d" points="129.33 0 129.33 43.59 140.97 55.22 169.48 55.22"/><polyline class="d" points="169.48 51.22 142.62 51.22 133.33 41.93 133.33 0"/><polyline class="e" points="169.48 53.22 141.8 53.22 131.33 42.76 131.33 0"/><polyline class="f" points="50.19 169.48 50.19 163.33 37.38 150.52 0 150.52"/><polyline class="f" points="0 158.52 34.07 158.52 42.19 166.64 42.19 169.48"/><polyline class="d" points="48.19 169.48 48.19 164.15 36.55 152.52 0 152.52"/><polyline class="d" points="0 156.52 34.89 156.52 44.19 165.81 44.19 169.48"/><polyline class="e" points="0 154.52 35.72 154.52 46.19 164.98 46.19 169.48"/><polyline class="f" points="127.33 169.48 127.33 163.33 140.14 150.52 169.48 150.52"/><polyline class="f" points="169.48 158.52 143.45 158.52 135.33 166.64 135.33 169.48"/><polyline class="d" points="129.33 169.48 129.33 164.15 140.97 152.52 169.48 152.52"/><polyline class="d" points="169.48 156.52 142.62 156.52 133.33 165.81 133.33 169.48"/><polyline class="e" points="169.48 154.52 141.8 154.52 131.33 164.98 131.33 169.48"/><polygon class="f" points="1.54 58.52 36.01 58.52 37.61 60.12 37.61 67.81 36.01 69.41 11.76 69.41 9.24 72.37 2.13 72.37 .46 70.7 .46 59.7 1.54 58.52"/><polygon class="f" points="67.24 145.59 101.71 145.59 103.31 147.19 103.31 154.88 101.71 156.48 77.46 156.48 74.94 159.44 67.83 159.44 66.17 157.78 66.17 146.78 67.24 145.59"/><polygon class="f" points="94.04 76.02 94.04 41.55 92.43 39.94 84.75 39.94 83.15 41.55 83.15 65.8 80.18 68.31 80.18 75.43 81.85 77.09 92.85 77.09 94.04 76.02"/><polygon class="f" points="37.61 75.3 37.61 147.69 39.21 149.3 46.9 149.3 48.5 147.69 48.5 85.52 51.46 83 51.46 75.89 49.8 74.22 38.8 74.22 37.61 75.3"/><polyline class="f" points="156.67 120.41 151.2 114.94 151.2 57.22"/><polygon class="f" points="34.23 133.35 14.69 133.35 12.85 131.61 12.85 76.13 14.69 74.39 34.23 74.39 36.07 76.13 36.07 131.61 34.23 133.35"/></g></svg>