<?xml version="1.0" encoding="UTF-8"?><svg xmlns="http://www.w3.org/2000/svg" xmlns:xlink="http://www.w3.org/1999/xlink" viewBox="0 0 353.95 333.56"><defs><style>.y{fill:url(#k);}.z{fill:url(#w);}.aa{fill:url(#e);}.aa,.ab,.ac,.ad{mix-blend-mode:overlay;}.ae{fill:url(#v);}.ae,.af,.ag,.ah{opacity:.15;}.ai{fill:url(#d);}.aj{fill:url(#h);}.ak,.al,.am,.an{fill:none;}.al{stroke:#4d4d4d;stroke-width:.28px;}.al,.ao,.an{stroke-miterlimit:10;}.ap{fill:url(#m);}.af{fill:url(#g);}.aq{isolation:isolate;}.ab{fill:url(#o);}.ar{fill:url(#i);}.ag{fill:url(#q);}.as{fill:url(#f);}.at{fill:url(#x);}.au{fill:url(#p);}.av{fill:url(#r);}.aw{fill:url(#n);}.ax{fill:url(#u);}.ah{fill:url(#l);}.ao{fill:#4d4d4d;stroke:#666;stroke-width:.99px;}.am{stroke:#231f20;stroke-linecap:round;stroke-width:1.6px;}.an{mix-blend-mode:darken;stroke:#657076;}.ac{fill:url(#j);}.ay{fill:url(#s);}.ad{fill:url(#t);}</style><radialGradient id="d" cx="196.33" cy="142.06" fx="208.32" fy="153.07" r="71.27" gradientUnits="userSpaceOnUse"><stop offset=".11" stop-color="#a9a9a6"/><stop offset=".28" stop-color="#9a9d9e"/><stop offset=".49" stop-color="#838c92"/><stop offset=".52" stop-color="#798389"/><stop offset=".58" stop-color="#6d787e"/><stop offset=".66" stop-color="#667177"/><stop offset=".88" stop-color="#657076"/></radialGradient><linearGradient id="e" x1="334.3" y1="44.56" x2="311.08" y2="17.67" gradientUnits="userSpaceOnUse"><stop offset=".15" stop-color="#a9a9a6"/><stop offset=".29" stop-color="#9a9d9e"/><stop offset=".46" stop-color="#838c92"/><stop offset=".5" stop-color="#798389"/><stop offset=".58" stop-color="#6d787e"/><stop offset=".7" stop-color="#667177"/><stop offset="1" stop-color="#657076"/></linearGradient><radialGradient id="f" cx="265.75" cy="61.35" fx="265.75" fy="61.35" r="19.47" gradientTransform="translate(65.08 -58.15) rotate(6.08)" gradientUnits="userSpaceOnUse"><stop offset="0" stop-color="#aeb0b7"/><stop offset=".32" stop-color="#a9a9a8"/><stop offset=".35" stop-color="#a9a9a6"/><stop offset=".5" stop-color="#9a9d9e"/><stop offset=".67" stop-color="#838c92"/><stop offset="1" stop-color="#657076"/></radialGradient><pattern id="g" x="0" y="0" width="57.6" height="57.6" patternTransform="translate(-8089.52 -6583.83) rotate(6.08) scale(.13)" patternUnits="userSpaceOnUse" viewBox="0 0 57.6 57.6"><rect class="ak" x="0" y="0" width="57.6" height="57.6"/><line class="am" x1="58.11" y1="14.48" x2="62.26" y2="13.45"/><line class="am" x1="25.8" y1="31.8" x2="23.59" y2="35.46"/><line class="am" x1="23.23" y1="24.91" x2="24.99" y2="28.13"/><line class="am" x1="21.75" y1="27.35" x2="21.97" y2="32.17"/><line class="am" x1="30.78" y1="44.12" x2="31.58" y2="48.31"/><line class="am" x1="17.5" y1="38.69" x2="16.71" y2="42.89"/><line class="am" x1="9.87" y1="39.16" x2="13.17" y2="41.87"/><line class="am" x1="17.5" y1="33.44" x2="20.8" y2="36.15"/><line class="am" x1="21.67" y1="43.39" x2="20.2" y2="39.38"/><line class="am" x1="9.45" y1="42.01" x2="5.25" y2="45.6"/><line class="am" x1="15.12" y1="31.3" x2="19.23" y2="30.12"/><line class="am" x1="23.79" y1="50.9" x2="27.23" y2="48.36"/><line class="am" x1="15.11" y1="52.77" x2="17.32" y2="49.11"/><line class="am" x1="33.75" y1="34.15" x2="35.43" y2="38.08"/><line class="am" x1="41.75" y1="24.85" x2="41.2" y2="30.6"/><line class="am" x1="30.57" y1="38.9" x2="28.44" y2="42.61"/><line class="am" x1="39.67" y1="38.73" x2="36.36" y2="41.44"/><line class="am" x1="38.59" y1="52.05" x2="41.91" y2="54.74"/><line class="am" x1="36.91" y1="32.47" x2="40.2" y2="35.2"/><line class="am" x1="30.08" y1="34.59" x2="31.57" y2="30.58"/><line class="am" x1="34.28" y1="30.47" x2="37.92" y2="28.22"/><line class="am" x1="10.02" y1="47.92" x2="12.5" y2="44.44"/><line class="am" x1="41" y1="20.38" x2="38.61" y2="23.93"/><line class="am" x1="14" y1="37.85" x2="12.28" y2="32.64"/><line class="am" x1="13.16" y1="17.15" x2="15.93" y2="13.89"/><line class="am" x1="34.69" y1="21.86" x2="34.25" y2="27.35"/><line class="am" x1="21.5" y1="23.35" x2="23.41" y2="18.74"/><line class="am" x1="25.72" y1="42.06" x2="24.3" y2="46.09"/><line class="am" x1="31.69" y1="41.64" x2="35" y2="44.35"/><line class="am" x1="16.34" y1="21.93" x2="19" y2="26.6"/><line class="am" x1="25.13" y1="55.12" x2="28.77" y2="52.87"/><line class="am" x1="14.98" y1="28.92" x2="10.85" y2="27.81"/><line class="am" x1="14.37" y1="20.32" x2="12.75" y2="23.35"/><line class="am" x1="45.75" y1="5.85" x2="46" y2="11"/><line class="am" x1="30.46" y1="3.36" x2="33.77" y2="6.07"/><line class="am" x1="25.25" y1="5.35" x2="20.96" y2="8.34"/><line class="am" x1="13.76" y1="2.28" x2="17.5" y2="4.85"/><line class="am" x1="27.85" y1="16.5" x2="30" y2="20.2"/><line class="am" x1="30" y1="9.1" x2="29.45" y2="12.48"/><line class="am" x1="33.31" y1="8.65" x2="37.23" y2="10.36"/><line class="am" x1="25.51" y1="9.77" x2="27.71" y2="6.11"/><line class="am" x1="48.25" y1="21.1" x2="44.41" y2="24.49"/><line class="am" x1="17.75" y1="19.6" x2="19.65" y2="14.7"/><line class="am" x1="16.67" y1="8.58" x2="19.71" y2="11.59"/><line class="am" x1="42.22" y1="4.71" x2="40" y2="8.6"/><line class="am" x1="44.5" y1="15.09" x2="44.59" y2="19.37"/><line class="am" x1="40.62" y1="12.39" x2="44.88" y2="12.6"/><line class="am" x1="25.86" y1="12.96" x2="22.56" y2="15.68"/><line class="am" x1="45.25" y1="30.68" x2="43.56" y2="34.61"/><line class="am" x1="50.08" y1="38.59" x2="50.8" y2="42.8"/><line class="am" x1="50.7" y1="33.6" x2="52.28" y2="37.58"/><line class="am" x1="50.74" y1="46.68" x2="47.45" y2="49.41"/><line class="am" x1="52.6" y1="50.24" x2="54.81" y2="46.58"/><line class="am" x1="43.48" y1="45.25" x2="44.5" y2="50.35"/><line class="am" x1="54.61" y1="23.34" x2="50.35" y2="23.02"/><line class="am" x1="56.36" y1="40.21" x2="53.08" y2="42.94"/><line class="am" x1="47.65" y1="36.43" x2="45.85" y2="40.31"/><line class="am" x1="53.43" y1="26.2" x2="56.59" y2="29.08"/><line class="am" x1="7.75" y1="5.35" x2="5.03" y2="8.35"/><line class="am" x1="14.01" y1="10.21" x2="10.71" y2="12.92"/><line class="am" x1="11.18" y1="2.54" x2="12.41" y2="6.64"/><line class="am" x1="47.75" y1="30.75" x2="52" y2="31.23"/><line class="am" x1="6.75" y1="47.81" x2="5.07" y2="51.74"/><line class="am" x1="8.29" y1="52.97" x2="5" y2="55.7"/><line class="am" x1="6.13" y1="29.9" x2="9.42" y2="32.64"/><line class="am" x1="48.93" y1="7.12" x2="52.57" y2="4.87"/><line class="am" x1="50.22" y1="9.62" x2="48.8" y2="13.65"/><line class="am" x1=".51" y1="14.48" x2="4.66" y2="13.45"/><line class="am" x1="2.51" y1="28.91" x2="4.73" y2="25.25"/><line class="am" x1="5.56" y1="18.33" x2="2.28" y2="21.06"/><line class="am" x1="7.34" y1="14.93" x2="9.5" y2="18.6"/><line class="am" x1="5.75" y1="21.1" x2="8.49" y2="25.63"/><line class="am" x1="4.01" y1="32.39" x2="3.22" y2="36.59"/><line class="am" x1="9.5" y1="35.6" x2="5.49" y2="38.68"/><line class="am" x1="11.45" y1="49.91" x2="11.77" y2="54.17"/><line class="am" x1="34.75" y1="12.6" x2="30.81" y2="15.89"/><line class="am" x1="37.38" y1="13.27" x2="39.53" y2="16.97"/><line class="am" x1="33.31" y1="17.56" x2="37.13" y2="19.48"/><line class="am" x1="28.46" y1="36.85" x2="25.16" y2="39.56"/><line class="am" x1="20.2" y1="44.7" x2="16.23" y2="46.28"/><line class="am" x1="20" y1="50.1" x2="22" y2="54.35"/><line class="am" x1="36.25" y1="47.35" x2="40.26" y2="48.82"/><line class="am" x1="37" y1="3.1" x2="36.59" y2="7.48"/><line class="am" x1="40.85" y1="41.63" x2="39.8" y2="45.78"/><line class="am" x1="36.17" y1="49.7" x2="32.07" y2="50.93"/><line class="am" x1="32.5" y1="23.6" x2="28.66" y2="27.73"/><line class="am" x1="49.95" y1="51.35" x2="51.63" y2="55.28"/><line class="am" x1="56.21" y1="36.53" x2="59.51" y2="39.24"/><line class="am" x1="56.96" y1="46.23" x2="60.26" y2="48.94"/><line class="am" x1="54.21" y1="32.17" x2="58.32" y2="30.99"/><line class="am" x1="56.44" y1="21.41" x2="58.59" y2="25.1"/><line class="am" x1="58.11" y1="14.48" x2="62.26" y2="13.45"/><line class="am" x1="59" y1="51.6" x2="55.71" y2="54.33"/><line class="am" x1="51.15" y1="14.55" x2="52.83" y2="18.48"/><line class="am" x1="60.33" y1="42.9" x2="56.15" y2="43.82"/><line class="am" x1="50.93" y1="26.1" x2="45.75" y2="27.35"/><line class="am" x1="6.07" y1="11.21" x2="9.6" y2="8.8"/><line class="am" x1="45.04" y1="42.43" x2="48.04" y2="45.48"/><line class="am" x1="53.09" y1="8.66" x2="55.09" y2="12.44"/><line class="am" x1="59.06" y1="17.93" x2="54.8" y2="17.6"/><line class="am" x1="26.36" y1="19.81" x2="27.5" y2="24.85"/><line class="am" x1="42.16" y1="36.41" x2="43" y2="40.6"/><line class="am" x1="47.21" y1="17.96" x2="50.96" y2="20.03"/><line class="am" x1="35" y1="54.35" x2="31.97" y2="53.38"/><line class="am" x1="20.65" y1="1.85" x2="20.2" y2="6.1"/><line class="am" x1="2" y1="5.6" x2="3" y2="10.85"/><line class="am" x1="56.25" y1="8.1" x2="57.74" y2="4.1"/><line class="am" x1="47.75" y1="52.73" x2="46" y2="56.6"/><line class="am" x1="44.33" y1="59.77" x2="40.66" y2="57.58"/><line class="am" x1="29.5" y1="55.2" x2="27.71" y2="60.69"/><line class="am" x1="21.5" y1="56.45" x2="24.5" y2="60.7"/><line class="am" x1="50.93" y1="57.37" x2="47.63" y2="60.08"/><line class="am" x1="8.53" y1="55.83" x2="7.6" y2="60"/><line class="am" x1="15" y1="55.6" x2="11.75" y2="57.95"/><line class="am" x1="1.6" y1="55.4" x2="2.4" y2="59.6"/><line class="am" x1="54" y1="60.4" x2="56.21" y2="56.74"/><line class="am" x1="34" y1="60.7" x2="33.97" y2="57.43"/><line class="am" x1="16.91" y1="54.14" x2="17.62" y2="58.35"/><line class="am" x1="37.15" y1="55.8" x2="39" y2="59.1"/><line class="am" x1="-1.39" y1="36.53" x2="1.91" y2="39.24"/><line class="am" x1="-.64" y1="46.23" x2="2.66" y2="48.94"/><line class="am" x1="-3.38" y1="32.17" x2=".72" y2="30.99"/><line class="am" x1="-1.16" y1="21.41" x2=".99" y2="25.1"/><line class="am" x1=".51" y1="14.48" x2="4.66" y2="13.45"/><line class="am" x1="1.4" y1="51.6" x2="-1.89" y2="54.33"/><line class="am" x1="2.73" y1="42.9" x2="-1.45" y2="43.82"/><line class="am" x1="1.46" y1="17.93" x2="-2.8" y2="17.6"/><line class="am" x1="-1.35" y1="8.1" x2=".14" y2="4.1"/><line class="am" x1="44.33" y1="2.17" x2="40.66" y2="-.02"/><line class="am" x1="29.5" y1="-2.4" x2="27.71" y2="3.09"/><line class="am" x1="21.5" y1="-1.15" x2="24.5" y2="3.1"/><line class="am" x1="50.93" y1="-.23" x2="47.63" y2="2.48"/><line class="am" x1="8.53" y1="-1.77" x2="7.6" y2="2.4"/><line class="am" x1="15" y1="-2" x2="11.75" y2=".35"/><line class="am" x1="1.6" y1="-2.2" x2="2.4" y2="2"/><line class="am" x1="54" y1="2.8" x2="56.21" y2="-.86"/><line class="am" x1="34" y1="3.1" x2="33.97" y2="-.17"/><line class="am" x1="16.91" y1="-3.46" x2="17.62" y2=".75"/><line class="am" x1="37.15" y1="-1.8" x2="39" y2="1.5"/></pattern><linearGradient id="h" x1="274.59" y1="61.35" x2="258.17" y2="61.35" gradientTransform="translate(57.08 -30.34)" gradientUnits="userSpaceOnUse"><stop offset=".03" stop-color="#9b9b98"/><stop offset=".13" stop-color="#a4a5a6"/><stop offset=".22" stop-color="#aeb0b7"/><stop offset=".35" stop-color="#9fa3a9"/><stop offset=".61" stop-color="#788187"/><stop offset=".72" stop-color="#657076"/><stop offset="1" stop-color="#8b949a"/></linearGradient><radialGradient id="i" cx="268.55" cy="61.35" fx="268.55" fy="61.35" r="9.9" gradientTransform="translate(57.08 -82.57) scale(1 1.85)" xlink:href="#f"/><linearGradient id="j" x1="45.25" y1="44.56" x2="22.02" y2="17.67" xlink:href="#e"/><radialGradient id="k" cx="-117.96" cy="142.42" fx="-117.96" fy="142.42" r="19.47" gradientTransform="translate(191.77 -65.1) rotate(19.05)" xlink:href="#f"/><pattern id="l" patternTransform="translate(-8367.81 -6411.45) rotate(19.05) scale(.13)" xlink:href="#g"/><linearGradient id="m" x1="-109.12" y1="142.42" x2="-125.54" y2="142.42" gradientTransform="translate(151.74 -111.42)" xlink:href="#h"/><radialGradient id="n" cx="-115.16" cy="142.42" fx="-115.16" fy="142.42" r="9.9" gradientTransform="translate(151.74 -232.66) scale(1 1.85)" xlink:href="#f"/><linearGradient id="o" y1="317.14" x2="311.08" y2="290.26" xlink:href="#e"/><radialGradient id="p" cx="39.87" cy="769.87" fx="39.87" fy="769.87" r="19.47" gradientTransform="translate(1000.22 -64.42) rotate(64.45)" xlink:href="#f"/><pattern id="q" patternTransform="translate(-9536.52 -6311.26) rotate(64.45) scale(.13)" xlink:href="#g"/><linearGradient id="r" x1="48.71" y1="769.87" x2="32.3" y2="769.87" gradientTransform="translate(282.97 -466.29)" xlink:href="#h"/><radialGradient id="s" cx="42.67" cy="769.87" fx="42.67" fy="769.87" r="9.9" gradientTransform="translate(282.96 -1121.68) scale(1 1.85)" xlink:href="#f"/><linearGradient id="t" x1="45.25" y1="317.14" x2="22.02" y2="290.26" xlink:href="#e"/><radialGradient id="u" cx="-31.38" cy="276.7" fx="-31.38" fy="276.7" r="19.47" gradientTransform="translate(84.03 29.69) rotate(3.93)" xlink:href="#f"/><pattern id="v" patternTransform="translate(-8064.92 -6618.59) rotate(3.93) scale(.13)" xlink:href="#g"/><linearGradient id="w" x1="-22.54" y1="276.7" x2="-38.95" y2="276.7" gradientTransform="translate(65.16 26.9)" xlink:href="#h"/><radialGradient id="x" cx="-28.58" cy="276.7" fx="-28.58" fy="276.7" r="9.9" gradientTransform="translate(65.16 -208.66) scale(1 1.85)" xlink:href="#f"/></defs><g class="aq"><g id="b"><g id="c"><circle class="ai" cx="176.97" cy="166.78" r="42.1"/><circle class="an" cx="176.97" cy="166.78" r="42.1"/><path class="ao" d="M325.48.5H28.47C13.02.5.5,13.02.5,28.47v276.62c0,15.45,12.52,27.97,27.97,27.97h297.01c15.45,0,27.97-12.52,27.97-27.97V28.47c0-15.45-12.52-27.97-27.97-27.97ZM176.97,315.97c-82.39,0-149.19-66.79-149.19-149.19S94.58,17.59,176.97,17.59s149.19,66.79,149.19,149.19-66.79,149.19-149.19,149.19Z"/><circle class="aa" cx="322.73" cy="31.16" r="21.27"/><circle class="as" cx="322.83" cy="31.01" r="19.47"/><circle class="af" cx="322.83" cy="31.01" r="19.47"/><circle class="al" cx="322.83" cy="31.01" r="19.47"/><rect class="aj" x="319.39" y="15.84" width="6.86" height="30.33" transform="translate(5.1 -34.03) rotate(6.08)"/><rect class="ar" x="319.89" y="16.26" width="5.9" height="29.5" transform="translate(5.1 -34.03) rotate(6.08)"/><circle class="ac" cx="33.67" cy="31.16" r="21.27"/><circle class="y" cx="33.78" cy="31.01" r="19.47"/><circle class="ah" cx="33.78" cy="31.01" r="19.47"/><circle class="al" cx="33.78" cy="31.01" r="19.47"/><rect class="ap" x="30.34" y="15.84" width="6.86" height="30.33" transform="translate(11.97 -9.33) rotate(19.05)"/><rect class="aw" x="30.83" y="16.26" width="5.9" height="29.5" transform="translate(11.97 -9.33) rotate(19.05)"/><circle class="ab" cx="322.73" cy="303.74" r="21.27"/><circle class="au" cx="322.83" cy="303.59" r="19.47"/><circle class="ag" cx="322.83" cy="303.59" r="19.47"/><circle class="al" cx="322.83" cy="303.59" r="19.47"/><rect class="av" x="319.4" y="288.42" width="6.86" height="30.33" transform="translate(457.49 -118.61) rotate(64.45)"/><rect class="ay" x="319.89" y="288.85" width="5.9" height="29.5" transform="translate(457.5 -118.61) rotate(64.45)"/><circle class="ad" cx="33.67" cy="303.74" r="21.27"/><circle class="ax" cx="33.78" cy="303.59" r="19.47"/><circle class="ae" cx="33.78" cy="303.59" r="19.47"/><circle class="al" cx="33.78" cy="303.59" r="19.47"/><rect class="z" x="30.34" y="288.43" width="6.86" height="30.33" transform="translate(20.86 -1.6) rotate(3.93)"/><rect class="at" x="30.83" y="288.85" width="5.9" height="29.5" transform="translate(20.86 -1.6) rotate(3.93)"/></g></g></g></svg>