<?xml version="1.0" encoding="UTF-8"?><svg xmlns="http://www.w3.org/2000/svg" xmlns:xlink="http://www.w3.org/1999/xlink" viewBox="0 0 318.94 318.94"><defs><style>.u{fill:url(#t);}.v{fill:url(#m);}.v,.w,.x,.y,.z,.aa,.ab,.ac,.ad{mix-blend-mode:darken;}.w{fill:url(#s);}.ae{fill:url(#d);}.af{fill:url(#l);}.ag{fill:url(#h);}.ah{fill:url(#j);}.x{fill:url(#k);}.ai{isolation:isolate;}.aj{fill:url(#f);}.y{fill:url(#q);}.ak{fill:url(#p);}.z{fill:url(#i);}.aa{fill:url(#g);}.al{fill:url(#r);}.am{fill:url(#n);}.ab{fill:url(#o);}.ac{fill:url(#e);}.ad{fill:none;stroke:#657076;stroke-miterlimit:10;}</style><radialGradient id="d" cx="181" cy="162.95" fx="181" fy="162.95" r="195.7" gradientTransform="translate(-66.05 159.47) rotate(-45)" gradientUnits="userSpaceOnUse"><stop offset=".08" stop-color="#a9a9a6"/><stop offset=".25" stop-color="#9a9d9e"/><stop offset=".46" stop-color="#838c92"/><stop offset=".5" stop-color="#798389"/><stop offset=".58" stop-color="#6d787e"/><stop offset=".7" stop-color="#667177"/><stop offset="1" stop-color="#657076"/></radialGradient><radialGradient id="e" cx="138.76" cy="78.28" fx="123.62" fy="177.13" r="100" gradientTransform="translate(178.65 226.32) rotate(-143.12) scale(1 .42)" gradientUnits="userSpaceOnUse"><stop offset=".15" stop-color="#a9a9a6"/><stop offset=".29" stop-color="#9a9d9e"/><stop offset=".46" stop-color="#838c92"/><stop offset=".5" stop-color="#798389"/><stop offset=".58" stop-color="#6d787e"/><stop offset=".7" stop-color="#667177"/><stop offset="1" stop-color="#657076"/></radialGradient><radialGradient id="f" cx="176.73" cy="163.09" fx="176.73" fy="163.09" r="214.49" gradientTransform="translate(0 318.94) rotate(-90)" xlink:href="#d"/><radialGradient id="g" cx="130.42" cy="72.43" fx="114.07" fy="179.15" r="107.97" gradientTransform="translate(205.85 200.26) rotate(171.88) scale(1 .42)" xlink:href="#e"/><radialGradient id="h" cx="181" cy="162.95" fx="181" fy="162.95" r="195.7" gradientTransform="translate(159.47 384.99) rotate(-135)" xlink:href="#d"/><radialGradient id="i" cx="138.76" cy="78.28" fx="123.62" fy="177.13" r="100" gradientTransform="translate(226.32 140.29) rotate(126.88) scale(1 .42)" xlink:href="#e"/><radialGradient id="j" cx="176.73" cy="163.09" fx="176.73" fy="163.09" r="214.49" gradientTransform="translate(318.94 318.94) rotate(-180)" xlink:href="#d"/><radialGradient id="k" cx="130.42" cy="72.43" fx="114.07" fy="179.15" r="107.97" gradientTransform="translate(200.26 113.09) rotate(81.88) scale(1 .42)" xlink:href="#e"/><radialGradient id="l" cx="181" cy="162.96" fx="181" fy="162.96" r="195.7" gradientTransform="translate(384.99 159.47) rotate(135)" xlink:href="#d"/><radialGradient id="m" cx="138.76" cy="78.28" fx="123.62" fy="177.13" r="100" gradientTransform="translate(140.29 92.62) rotate(36.88) scale(1 .42)" xlink:href="#e"/><radialGradient id="n" cx="176.73" cy="163.09" fx="176.73" fy="163.09" r="214.49" gradientTransform="translate(318.94 0) rotate(90)" xlink:href="#d"/><radialGradient id="o" cx="130.42" cy="72.43" fx="114.07" fy="179.15" r="107.97" gradientTransform="translate(113.09 118.68) rotate(-8.12) scale(1 .42)" xlink:href="#e"/><radialGradient id="p" cx="181" cy="162.95" fx="181" fy="162.95" r="195.7" gradientTransform="translate(159.47 -66.05) rotate(45)" xlink:href="#d"/><radialGradient id="q" cx="138.76" cy="78.28" fx="123.62" fy="177.13" r="100" gradientTransform="translate(92.62 178.65) rotate(-53.12) scale(1 .42)" xlink:href="#e"/><radialGradient id="r" cx="176.73" cy="163.09" fx="176.73" fy="163.09" r="214.49" gradientTransform="matrix(1,0,0,1,0,0)" xlink:href="#d"/><radialGradient id="s" cx="130.42" cy="72.43" fx="114.07" fy="179.15" r="107.97" gradientTransform="translate(118.68 205.85) rotate(-98.12) scale(1 .42)" xlink:href="#e"/><radialGradient id="t" cx="157.55" cy="159.15" fx="157.55" fy="159.15" r="42.15" gradientUnits="userSpaceOnUse"><stop offset="0" stop-color="#657076"/><stop offset=".45" stop-color="#677177"/><stop offset=".66" stop-color="#6e787e"/><stop offset=".82" stop-color="#7b848a"/><stop offset=".88" stop-color="#838c92"/><stop offset=".92" stop-color="#858d93"/><stop offset=".94" stop-color="#8d9397"/><stop offset=".95" stop-color="#9b9e9e"/><stop offset=".96" stop-color="#a9a9a6"/><stop offset=".97" stop-color="#9a9c9b"/><stop offset=".99" stop-color="#737c80"/><stop offset="1" stop-color="#657076"/></radialGradient></defs><g class="ai"><g id="b"><g id="c"><path class="ae" d="M164.02,157.05c-8.12-37.54-25.05-77.48-73.98-122.55-6.02-4.37-16.1,2.95-27.25,12.33-10.5,9.38-22.07,20.83-16.05,24.72,60.22,25.65,88.44,56.45,107.86,89.63,3.14-1.38,6.28-2.75,9.42-4.13Z"/><path class="ac" d="M164.02,157.05c-8.12-37.54-25.05-77.48-73.98-122.55-6.02-4.37-16.1,2.95-27.25,12.33-10.5,9.38-22.07,20.83-16.05,24.72,60.22,25.65,88.44,56.45,107.86,89.63,3.14-1.38,6.28-2.75,9.42-4.13Z"/><path class="ad" d="M164.02,157.05c-8.12-37.54-25.05-77.48-73.98-122.55-6.02-4.37-16.1,2.95-27.25,12.33-10.5,9.38-22.07,20.83-16.05,24.72,60.22,25.65,88.44,56.45,107.86,89.63,3.14-1.38,6.28-2.75,9.42-4.13Z"/><path class="aj" d="M160.98,154.54c-33.54-19.93-68.97-39.49-146.52-29.34-18.93,4.11-17.66,66.62-1.87,59.37,68.14-35.52,106.59-28.93,144.65-20.44,1.24-3.2,2.5-6.38,3.74-9.58Z"/><path class="aa" d="M160.98,154.54c-33.54-19.93-68.97-39.49-146.52-29.34-18.93,4.11-17.66,66.62-1.87,59.37,68.14-35.52,106.59-28.93,144.65-20.44,1.24-3.2,2.5-6.38,3.74-9.58Z"/><path class="ad" d="M160.98,154.54c-33.54-19.93-68.97-39.49-146.52-29.34-18.93,4.11-17.66,66.62-1.87,59.37,68.14-35.52,106.59-28.93,144.65-20.44,1.24-3.2,2.5-6.38,3.74-9.58Z"/><path class="ag" d="M157.05,154.91c-37.54,8.12-77.48,25.05-122.55,73.98-4.37,6.02,2.95,16.1,12.33,27.25,9.38,10.5,20.83,22.07,24.72,16.05,25.65-60.22,56.45-88.44,89.63-107.86-1.38-3.14-2.75-6.28-4.13-9.42Z"/><path class="z" d="M157.05,154.91c-37.54,8.12-77.48,25.05-122.55,73.98-4.37,6.02,2.95,16.1,12.33,27.25,9.38,10.5,20.83,22.07,24.72,16.05,25.65-60.22,56.45-88.44,89.63-107.86-1.38-3.14-2.75-6.28-4.13-9.42Z"/><path class="ad" d="M157.05,154.91c-37.54,8.12-77.48,25.05-122.55,73.98-4.37,6.02,2.95,16.1,12.33,27.25,9.38,10.5,20.83,22.07,24.72,16.05,25.65-60.22,56.45-88.44,89.63-107.86-1.38-3.14-2.75-6.28-4.13-9.42Z"/><path class="ah" d="M154.54,157.96c-19.93,33.54-39.49,68.97-29.34,146.52,4.11,18.93,66.62,17.66,59.37,1.87-35.52-68.14-28.93-106.59-20.44-144.65-3.2-1.24-6.38-2.5-9.58-3.74Z"/><path class="x" d="M154.54,157.96c-19.93,33.54-39.49,68.97-29.34,146.52,4.11,18.93,66.62,17.66,59.37,1.87-35.52-68.14-28.93-106.59-20.44-144.65-3.2-1.24-6.38-2.5-9.58-3.74Z"/><path class="ad" d="M154.54,157.96c-19.93,33.54-39.49,68.97-29.34,146.52,4.11,18.93,66.62,17.66,59.37,1.87-35.52-68.14-28.93-106.59-20.44-144.65-3.2-1.24-6.38-2.5-9.58-3.74Z"/><path class="af" d="M154.91,161.89c8.12,37.54,25.04,77.48,73.98,122.55,6.02,4.37,16.1-2.95,27.25-12.33,10.5-9.38,22.07-20.83,16.05-24.72-60.22-25.65-88.44-56.45-107.86-89.63-3.14,1.38-6.28,2.75-9.42,4.13Z"/><path class="v" d="M154.91,161.89c8.12,37.54,25.04,77.48,73.98,122.55,6.02,4.37,16.1-2.95,27.25-12.33,10.5-9.38,22.07-20.83,16.05-24.72-60.22-25.65-88.44-56.45-107.86-89.63-3.14,1.38-6.28,2.75-9.42,4.13Z"/><path class="ad" d="M154.91,161.89c8.12,37.54,25.04,77.48,73.98,122.55,6.02,4.37,16.1-2.95,27.25-12.33,10.5-9.38,22.07-20.83,16.05-24.72-60.22-25.65-88.44-56.45-107.86-89.63-3.14,1.38-6.28,2.75-9.42,4.13Z"/><path class="am" d="M157.96,164.4c33.54,19.93,68.97,39.49,146.52,29.34,18.93-4.11,17.66-66.62,1.87-59.37-68.14,35.52-106.59,28.93-144.65,20.44-1.24,3.2-2.5,6.38-3.74,9.58Z"/><path class="ab" d="M157.96,164.4c33.54,19.93,68.97,39.49,146.52,29.34,18.93-4.11,17.66-66.62,1.87-59.37-68.14,35.52-106.59,28.93-144.65,20.44-1.24,3.2-2.5,6.38-3.74,9.58Z"/><path class="ad" d="M157.96,164.4c33.54,19.93,68.97,39.49,146.52,29.34,18.93-4.11,17.66-66.62,1.87-59.37-68.14,35.52-106.59,28.93-144.65,20.44-1.24,3.2-2.5,6.38-3.74,9.58Z"/><path class="ak" d="M161.89,164.02c37.54-8.12,77.48-25.05,122.55-73.98,4.37-6.02-2.95-16.1-12.33-27.25-9.38-10.5-20.83-22.07-24.72-16.05-25.65,60.22-56.45,88.44-89.63,107.86,1.38,3.14,2.75,6.28,4.13,9.42Z"/><path class="y" d="M161.89,164.02c37.54-8.12,77.48-25.05,122.55-73.98,4.37-6.02-2.95-16.1-12.33-27.25-9.38-10.5-20.83-22.07-24.72-16.05-25.65,60.22-56.45,88.44-89.63,107.86,1.38,3.14,2.75,6.28,4.13,9.42Z"/><path class="ad" d="M161.89,164.02c37.54-8.12,77.48-25.05,122.55-73.98,4.37-6.02-2.95-16.1-12.33-27.25-9.38-10.5-20.83-22.07-24.72-16.05-25.65,60.22-56.45,88.44-89.63,107.86,1.38,3.14,2.75,6.28,4.13,9.42Z"/><path class="al" d="M164.4,160.98c19.93-33.54,39.49-68.97,29.34-146.52-4.11-18.93-66.62-17.65-59.37-1.87,35.52,68.14,28.93,106.59,20.44,144.65,3.2,1.24,6.38,2.5,9.58,3.74Z"/><path class="w" d="M164.4,160.98c19.93-33.54,39.49-68.97,29.34-146.52-4.11-18.93-66.62-17.65-59.37-1.87,35.52,68.14,28.93,106.59,20.44,144.65,3.2,1.24,6.38,2.5,9.58,3.74Z"/><path class="ad" d="M164.4,160.98c19.93-33.54,39.49-68.97,29.34-146.52-4.11-18.93-66.62-17.65-59.37-1.87,35.52,68.14,28.93,106.59,20.44,144.65,3.2,1.24,6.38,2.5,9.58,3.74Z"/><circle class="u" cx="157.21" cy="158.97" r="42.1"/><circle class="ad" cx="157.21" cy="158.97" r="42.1"/></g></g></g></svg>