<?xml version="1.0" encoding="UTF-8"?><svg xmlns="http://www.w3.org/2000/svg" xmlns:xlink="http://www.w3.org/1999/xlink" viewBox="0 0 500 500"><defs><style>.ah{fill:url(#k);}.ah,.ai,.aj,.ak,.al,.am,.an,.ao,.ap,.aq,.ar,.as,.at,.au,.av,.aw,.ax,.ay,.az,.ba,.bb,.bc,.bd,.be,.bf,.bg,.bh{stroke-miterlimit:10;}.ah,.ai,.aj,.am,.an,.ao,.ar,.aw,.ay,.ba,.bc,.bd,.bi,.bf,.bg{stroke-width:2.13px;}.ah,.an,.ao,.bc,.bf,.bg{stroke:#c6838f;}.ai{fill:#5d8aa7;stroke:#335568;}.bj{stroke:#dd83b3;stroke-width:1px;}.bj,.aq{fill:none;}.bj,.bi{stroke-linecap:round;stroke-linejoin:round;}.aj{fill:#e6e6e6;}.aj,.am,.aq,.av,.aw,.ay,.az,.bi{stroke:#666;}.ak{fill:url(#aa);}.ak,.al,.ap,.as,.at,.au,.ax,.bb,.bh{stroke:#f3b41d;stroke-width:1.42px;}.al{fill:#e28d1e;}.am{fill:url(#q);}.bk{fill:url(#ae);}.an{fill:url(#d);}.ao{fill:url(#t);}.bl{fill:#fff;}.ap{fill:url(#x);}.aq,.av,.az{stroke-width:2.83px;}.bm{opacity:.8;}.bm,.bn{fill:#f2f2f2;}.ar,.az{fill:#dbeff0;}.ar,.bd{stroke:#8ea0a0;}.as{fill:url(#i);}.at{fill:url(#z);}.au{fill:url(#w);}.av{fill:rgba(255,255,255,.15);}.aw{fill:url(#b);}.ax{fill:url(#y);}.bo,.bd{fill:#666;}.bp,.bq{fill:#333;}.ay{fill:url(#r);}.ba{fill:#d34283;stroke:#771747;}.bb{fill:url(#h);}.br{fill:#fdcc1c;}.bc{fill:url(#e);}.be{fill:#fbe079;stroke:#f7bd1c;}.bs{fill:url(#u);}.bt{fill:url(#ad);}.bi{fill:url(#o);}.bf{fill:url(#l);}.bg{fill:url(#n);}.bq{opacity:.54;}.bu{fill:#dd83b3;}.bh{fill:url(#ab);}</style><linearGradient id="b" x1="188.67" y1="340.51" x2="189.61" y2="376.67" gradientUnits="userSpaceOnUse"><stop offset=".22" stop-color="#e6e6e6"/><stop offset=".49" stop-color="#dfdfdf"/><stop offset=".88" stop-color="#cbcbcb"/><stop offset="1" stop-color="#c4c4c4"/></linearGradient><radialGradient id="d" cx="415.44" cy="460.55" fx="367.94" fy="440.44" r="64.68" gradientTransform="translate(931.24 966.04) rotate(169.54) scale(1 1.28)" gradientUnits="userSpaceOnUse"><stop offset=".45" stop-color="#f6c7cd"/><stop offset=".48" stop-color="#f3c3c9"/><stop offset=".51" stop-color="#ecb9c0"/><stop offset=".53" stop-color="#e0a8b0"/><stop offset=".56" stop-color="#cf8f9a"/><stop offset=".57" stop-color="#c6838f"/></radialGradient><radialGradient id="e" cx="305.26" fx="257.77" fy="440.44" r="64.68" gradientTransform="translate(831.62 986.04) rotate(170.64) scale(1.12 1.29) skewX(2.68)" xlink:href="#d"/><radialGradient id="h" cx="189.49" cy="122.54" fx="189.49" fy="122.54" r="84.74" gradientUnits="userSpaceOnUse"><stop offset=".03" stop-color="#e0871e"/><stop offset=".15" stop-color="#fdcc1c"/><stop offset=".22" stop-color="#fdfdfd"/><stop offset=".22" stop-color="#fdfbf4"/><stop offset=".22" stop-color="#fdf5da"/><stop offset=".23" stop-color="#fdf0c4"/><stop offset=".24" stop-color="#fdedb3"/><stop offset=".24" stop-color="#fdeaa7"/><stop offset=".26" stop-color="#fde9a0"/><stop offset=".29" stop-color="#fde99f"/><stop offset=".44" stop-color="#fdcc1c"/><stop offset="1" stop-color="#e0871e"/></radialGradient><radialGradient id="i" cx="189.49" fx="189.49" r="84.74" xlink:href="#h"/><radialGradient id="k" cx="194.28" cy="224.29" fx="184.55" fy="238.76" r="38.36" gradientTransform="translate(454.74 213.18) rotate(135.74) scale(1 .78)" gradientUnits="userSpaceOnUse"><stop offset=".21" stop-color="#f6c7cd"/><stop offset=".23" stop-color="#efbec4"/><stop offset=".3" stop-color="#e0a8b1"/><stop offset=".38" stop-color="#d497a1"/><stop offset=".48" stop-color="#cc8b96"/><stop offset=".62" stop-color="#c78490"/><stop offset="1" stop-color="#c6838f"/></radialGradient><radialGradient id="l" cx="103.59" cy="145.59" fx="37.31" fy="209.21" r="111.58" gradientTransform="translate(238.5 146.62) rotate(140.6) scale(1 .59)" gradientUnits="userSpaceOnUse"><stop offset=".64" stop-color="#f6c7cd"/><stop offset=".65" stop-color="#efbec4"/><stop offset=".68" stop-color="#e0a8b1"/><stop offset=".71" stop-color="#d497a1"/><stop offset=".76" stop-color="#cc8b96"/><stop offset=".82" stop-color="#c78490"/><stop offset="1" stop-color="#c6838f"/></radialGradient><radialGradient id="n" cx="511.47" cy="427.93" fx="511.47" fy="427.93" r="61.68" gradientTransform="translate(-38.36 74.74) rotate(-7.71) scale(1 .89)" gradientUnits="userSpaceOnUse"><stop offset=".71" stop-color="#f6c7cd"/><stop offset=".71" stop-color="#efbec4"/><stop offset=".72" stop-color="#e0a8b1"/><stop offset=".74" stop-color="#d497a1"/><stop offset=".76" stop-color="#cc8b96"/><stop offset=".79" stop-color="#c78490"/><stop offset=".87" stop-color="#c6838f"/></radialGradient><linearGradient id="o" x1="450.24" y1="273.94" x2="431.49" y2="283.32" gradientUnits="userSpaceOnUse"><stop offset=".17" stop-color="#e6e6e6"/><stop offset=".35" stop-color="#dfdfdf"/><stop offset=".61" stop-color="#cbcbcb"/><stop offset=".7" stop-color="#c4c4c4"/></linearGradient><linearGradient id="q" x1="377.09" y1="304.82" x2="345.39" y2="313.71" gradientUnits="userSpaceOnUse"><stop offset="0" stop-color="#e6e6e6"/><stop offset=".34" stop-color="#dfdfdf"/><stop offset=".84" stop-color="#cbcbcb"/><stop offset="1" stop-color="#c4c4c4"/></linearGradient><linearGradient id="r" x1="417.29" y1="307.14" x2="442.48" y2="308.03" xlink:href="#b"/><radialGradient id="t" cx="290.68" cy="418.88" fx="290.68" fy="418.88" r="13.92" gradientTransform="translate(-943.09 275.02) rotate(-67.68) scale(.9 2.84) skewX(13.85)" gradientUnits="userSpaceOnUse"><stop offset=".54" stop-color="#f6c7cd"/><stop offset=".55" stop-color="#efbec4"/><stop offset=".59" stop-color="#e0a8b1"/><stop offset=".64" stop-color="#d497a1"/><stop offset=".69" stop-color="#cc8b96"/><stop offset=".77" stop-color="#c78490"/><stop offset="1" stop-color="#c6838f"/></radialGradient><linearGradient id="u" x1="329.18" y1="285.49" x2="305.18" y2="285.49" gradientUnits="userSpaceOnUse"><stop offset=".19" stop-color="#e6e6e6"/><stop offset=".46" stop-color="#dfdfdf"/><stop offset=".87" stop-color="#cbcbcb"/><stop offset="1" stop-color="#c4c4c4"/></linearGradient><radialGradient id="w" cx="295.83" cy="94.04" fx="295.83" fy="-100.56" r="208.97" gradientTransform="translate(10.88 5.22) rotate(9.68) scale(1 .42)" xlink:href="#h"/><radialGradient id="x" cx="327.81" cy="77.5" fx="327.81" fy="-50.69" r="138.41" gradientTransform="translate(28.59 -61.11) rotate(18.61) scale(1 .46)" xlink:href="#h"/><linearGradient id="y" x1="447.38" y1="17.49" x2="446.19" y2="134.83" gradientUnits="userSpaceOnUse"><stop offset="0" stop-color="#e0871e"/><stop offset=".15" stop-color="#fdcc1c"/><stop offset=".22" stop-color="#fdfdfd"/><stop offset=".22" stop-color="#fdfbf4"/><stop offset=".22" stop-color="#fdf5da"/><stop offset=".23" stop-color="#fdf0c4"/><stop offset=".24" stop-color="#fdedb3"/><stop offset=".24" stop-color="#fdeaa7"/><stop offset=".26" stop-color="#fde9a0"/><stop offset=".29" stop-color="#fde99f"/><stop offset=".44" stop-color="#fdcc1c"/><stop offset="1" stop-color="#e0871e"/></linearGradient><linearGradient id="z" x1="420.42" y1="64.71" x2="419.24" y2="182.04" xlink:href="#y"/><linearGradient id="aa" x1="386.16" y1="40.34" x2="384.97" y2="157.68" xlink:href="#y"/><linearGradient id="ab" x1="353.6" y1="62.91" x2="352.41" y2="180.24" xlink:href="#y"/><radialGradient id="ad" cx="60.86" cy="48.94" fx="60.86" fy="48.94" r="14.69" gradientUnits="userSpaceOnUse"><stop offset="0" stop-color="#f587bd"/><stop offset=".13" stop-color="#f385bb"/><stop offset=".18" stop-color="#ee7eb5"/><stop offset=".21" stop-color="#e472aa"/><stop offset=".24" stop-color="#d7619b"/><stop offset=".26" stop-color="#c54b87"/><stop offset=".27" stop-color="#c04481"/><stop offset="1" stop-color="#93245e"/></radialGradient><radialGradient id="ae" cx="98.79" cy="48.35" fx="98.79" fy="48.35" r="12.16" xlink:href="#ad"/></defs><g id="a"><path class="aw" d="M167.77,228.63l43.53.36,37,164.86s-44.16-14.05-84.5-1.12c-17.28,5.54-31.81,7.49-31.81,7.49l35.78-171.6Z"/></g><g id="c"><path class="an" d="M397.23,405.68l12.13,72.23c.17,1.25.66,2.43,1.45,3.16.94.87,1.85.79,2.74-.28.57-.69.91-1.65,1.06-2.66l12.71-74.03-30.08,1.58Z"/><path class="bc" d="M354.76,405.68l13.59,72.23c.19,1.25.74,2.43,1.62,3.16,1.05.87,2.07.79,3.06-.28.64-.69,1.02-1.65,1.18-2.66l14.23-74.03-33.69,1.58Z"/></g><g id="f"><path class="al" d="M402,111.74s-11.21,4.52,6.69,25.43c16.96,19.81,25,59.99,22.96,78.79,0,0,20.06-4.5,26.04-17.33,0,0-.59-53.93-19.63-73.74-19.04-19.81-36.06-13.14-36.06-13.14Z"/><path class="al" d="M399.6,212.6s-29.88-8.3-82.77-9.08c0,0-10.89-41,12.89-64.55s37.17-26.17,48.78-24.89c34.45,3.81,21.1,98.52,21.1,98.52Z"/></g><g id="g"><path class="bb" d="M193.02,111.02s-3.29-27.85,2.8-53.04,15.21-33.38,15.21-33.38c0,0,11.71,10.27,10.34,37.23-.77,15.15-15.97,49.25-15.97,49.25l-12.38-.07Z"/><path class="be" d="M198.94,109.58s-.31-22.55.79-29.81,4.17-10.07,4.17-10.07l1.53,4.3,2.16-12,3.69-6.07s4.61,7.7,2.64,20.3c-1.97,12.59-11.45,33.93-11.45,33.93l-3.53-.56Z"/><path class="as" d="M182.57,109.92s3.29-27.85-2.8-53.04c-6.1-25.19-15.21-33.38-15.21-33.38,0,0-11.71,10.27-10.34,37.23.77,15.15,15.97,49.25,15.97,49.25l12.38-.07Z"/><path class="be" d="M176.65,108.47s.31-22.55-.79-29.81c-1.11-7.26-4.17-10.07-4.17-10.07l-1.53,4.3-2.16-12-3.69-6.07s-4.61,7.7-2.64,20.3c1.97,12.59,11.45,33.93,11.45,33.93l3.53-.56Z"/></g><g id="j"><path class="bd" d="M174.16,216.3s12.64-5.28,27.98-1.87l9.15,14.56s-4.88,3.21-18.16,4.03-25.88-2.27-25.88-2.27l6.9-14.44Z"/><path class="ah" d="M187.04,184.01s-5.78.22-9.11,7.11c-3.33,6.89,1.78,33.11,9.11,43.11,7.33,10,14.23-32.01,11.31-42.89-2.51-9.34-11.31-7.33-11.31-7.33Z"/><path class="bf" d="M93.67,96.36s22.04,5.87,24.14,40.89c1.65,27.5-.3,33.35-8.28,38.08-13.78,8.15-47.26,6.07-58.52,1.78-11.26-4.3-16.96-19.53-17.78-34.52-1.43-26.18,10.28-38.95,26.6-45.96s33.84-.26,33.84-.26Z"/><path class="az" d="M27.08,251.29s3.85-1.63,12.74-2.81c8.89-1.19,26.81.3,32.89,1.41,0,0,7.11,33.11,4.3,55.48-2.81,22.37-6.07,28.59-6.07,28.59,0,0-21.19-36.74-28-47.56s-15.85-35.11-15.85-35.11Z"/><path class="ba" d="M45.45,257.21l13.11,6.96,4.82-10.52s-9.78-1.04-17.93,3.56Z"/><polygon class="ba" points="60.63 265.8 76.53 304.11 71.56 323.76 57.12 307.2 57.79 266.56 60.63 265.8"/><path class="ba" d="M63.11,262.66c.6,2.37-.6,6.42-3.17,7.07s-5.55-2.35-6.14-4.72,1.41-3.21,3.98-3.86,4.74-.86,5.33,1.51Z"/><path class="ai" d="M68.71,249.3l9.52,1.23s1.32,15.8,2.19,20.19c.72,3.64,6.74,15.78,6.96,18.89s-1.33,16.89-1.33,16.89l22.6,85.11s-23.37,6.67-44.32,2.67l-.95-80.22s6.21-19.62,8.19-30-.54-21.65-.54-21.65l-2.31-13.1Z"/><path class="ai" d="M67.9,308.71s1.93,5.11,2.96,12.67,4.59,74.67,4.59,74.67c0,0-36.15,3.56-46.07,1.33l-9.93-2.22s15.92-70.67,17.26-81.56c-.82-6.11-2.77-11.6-4.81-21.63-.77-3.77,1.98-11.97,1.11-15.78-3.22-14.15-8.44-24.13-8.44-24.13l9.47-2.64c10.6,18.95,24.45,45.59,33.87,59.29Z"/><ellipse class="br" cx="64.51" cy="322.42" rx="3.73" ry="4.27" transform="translate(-46.28 12.84) rotate(-8.38)"/><ellipse class="br" cx="66.72" cy="351.48" rx="3.73" ry="4.27"/></g><g id="m"><path class="bg" d="M482.93,357.14c3.65,4.23,1.43,11.27-4.97,15.71s-14.55,4.62-18.21.39-8.91-27.8-2.51-32.24,22.04,11.91,25.69,16.14Z"/><path class="bi" d="M427.29,226.21l42.18,85.79s-7.81,16.93-25.57,24.21c0,0-16.02-43.31-19.7-66.61-2.33-14.76-5.01-39.84,3.1-43.39Z"/></g><g id="p"><path class="am" d="M361.77,223.09s13.45,12.15,23.17,40.3,9.12,121.78,9.12,121.78c-23.52,8.75-46.14,13.62-67.56,13.33,0,0,18.07-77.63,19.85-98.96s-.3-67.56-.3-67.56l15.7-8.89Z"/><path class="aj" d="M359.92,222.46l-4.39,16.98,18.56,14.33-5.44.22,22.39,46.24s-.15-28.22-8.19-46.44c-8.04-18.22-22.93-31.33-22.93-31.33Z"/><path class="ay" d="M387.04,221.9l14.74,3.8c2.62.77,12.97,35.49,17.16,70.03,6.27,32.65,15.93,62.15,17.81,69.57,4.15,16.3,8.89,26.96,8.89,26.96-12.44,0-28.93-3.35-39.76-11.56,0,0-3.05-43.09-4.1-66.37-1.7-37.93-14.75-92.44-14.75-92.44Z"/><path class="aj" d="M400.74,300.23l4.05-48.8-4.91.22,3.04-15.53-11.29-13.04-5.97-1.54s11.85,39.34,15.08,78.69Z"/><path class="ar" d="M38.58,204.23l18.38,10c-3.8,6.45-4.6,13.08-5.85,19.26l-22.52-16.48c3.14-5.83,4.75-9.84,9.99-12.78Z"/><path class="ar" d="M66.56,202.36l-9.6,11.87c6.33,4.49,10.46,8.9,14.09,15.03l5.11-14.58c-2.26-6.52-4.29-10.4-9.6-12.31Z"/></g><g id="s"><path class="ao" d="M307.49,384.5c-1.01,5.33-8.23,8.71-16.13,7.54s-13.5-6.44-12.49-11.77,13.14-33.63,21.04-32.46,8.58,31.36,7.58,36.69Z"/><path class="bs" d="M333.61,264.61s.89,58.45-3.56,74.79c0,0-24.89,4.53-43.56-7.48,0,0,24.89-63.18,25.33-99.59,0,0,.85-2.04,2.52-1.5"/><path class="bo" d="M333.84,264.61c.87,6.24.74,12.5.78,18.76.02,12.52-.15,25.04-.99,37.55-.5,6.32-.96,12.59-2.56,18.79-.11.4-.44.69-.83.75-3.83.61-7.6.83-11.42.85-7.62,0-15.3-.99-22.53-3.51-3.63-1.24-7.12-2.91-10.37-4.98-.44-.28-.6-.82-.41-1.28,6.14-16,11.59-32.33,16.22-48.83,4.46-16.45,8.58-33.3,9.04-50.38.32-1.68,2.21-3.1,3.91-2.5,1.39.46.71,2.46-.66,2.02-.56-.21-1,.49-1.21.9,0,0,.08-.4.08-.4-.98,25.99-8.83,51.05-16.7,75.63-2.73,8.17-5.6,16.28-8.71,24.34l-.41-1.28c3.1,1.96,6.43,3.56,9.92,4.76,10.47,3.57,21.98,4.15,32.87,2.57,0,0-.84.77-.84.77,1.39-5.91,1.83-12.18,2.31-18.37.83-12.44,1.15-24.93,1.36-37.4.12-6.24-.04-12.49.68-18.74.01-.26.45-.28.47,0h0Z"/></g><g id="v"><path class="au" d="M323.9,22.27c-2.99-1.45-6.46-1.52-9.6-.45-4.36,1.48,3.77-1.45-14.9-1.31-26.32.21-53.94,25.39-59.77,58.61-1.89,10.77-2.91,29.35,8.2,38.02,11.11,8.67,31.24,15.09,31.24,15.09,0,0-5.98-13.09-6.49-27.11-1.28-34.65,24.16-56.56,37.18-62.93,19.65-9.61,17.99-15.31,15.94-18.56-.33-.53-1-.99-1.8-1.38Z"/><path class="ap" d="M357.91,29.02s-28.19,24.9-33.94,56.65c-4.22,23.35,2.66,42.46,2.66,42.46,0,0-21.06-14.99-15.78-50.89,5.96-40.52,37.51-54.69,43.76-54.69s3.3,6.46,3.3,6.46Z"/><path class="ax" d="M431.32,27.15c3.33.41,20.52,8.87,29.78,48.69,7.2,30.95-6,49.78-6,49.78,0,0,2.3-18.67,1.11-28.89-1.19-10.22-6.86-33.97-12.76-45.1-5.9-11.12-15.46-24.89-12.13-24.48Z"/><path class="at" d="M402.18,68.68s11.64-4.67,25.04,7.77c11.14,10.35,11.09,19.56,11.09,19.56,0,0-11.95-4-20.35-10s-15.78-17.33-15.78-17.33Z"/><path class="ak" d="M389.68,44.08s12.58,12.66.79,37.95c0,0-8.81-10.17-11.17-19.72s-4.13-17.83-1.38-18.74c7.49-2.48,11.77.51,11.77.51Z"/><path class="bh" d="M369.58,71.82c-.16.65-7.98,19.61-32.67,26.51,0,0,4.9-20.46,17.97-29.35,2.18-1.48,4.64-2.57,6.92-3.1,4.99-1.16,9.15.3,7.77,5.94Z"/></g><g id="ac"><path class="bn" d="M57.27,31.75l-8.94,2.61s-2.92,5.61-1.8,9.56,5.52,7.61,12.68,7.22,9.5-3.11,9.5-3.11c0,0,.89-9.39-4.11-12.72s-7.33-3.56-7.33-3.56Z"/><ellipse class="bt" cx="61.27" cy="42.29" rx="6.59" ry="7.9"/><ellipse class="bq" cx="61.83" cy="42.29" rx="2.22" ry="3.27"/><circle class="bm" cx="60.52" cy="39.7" r="1.53"/><path class="bn" d="M96.86,31.75l6.74,2.61s1.7,5.61.85,9.56-4.57,7.61-9.97,7.22-6.25-3.11-6.25-3.11c0,0-.67-9.39,3.1-12.72,3.77-3.33,5.53-3.56,5.53-3.56Z"/><ellipse class="bk" cx="98.37" cy="42.29" rx="6.32" ry="7.9"/><ellipse class="bq" cx="98.9" cy="42.29" rx="2.13" ry="3.27"/><ellipse class="bm" cx="97.65" cy="39.7" rx="1.47" ry="1.53"/><path class="bp" d="M108.27,38.3c-.53.03-1.06.11-1.55.22,0,0,0,0,0,0,0-.07-.01-.13-.01-.2,1.46-.44,2.97-1.66,4.51-3.32,0,0-2.71.76-5.07,0s-5.62-6.54-11.64-4.82c-4.64,1.33-8.06,8.78-7.16,16.67.2,2.71,2.43,3.83,2.43,3.83,0,0-1.22-1.75-1.22-2.5,0-3.82.63-9.95,3.24-12.38,1.45-1.35,2.92-1.89,4.31-1.94,2.18.28,6.45,1.24,6.9,7.02.28,3.56-.31,5.45-1.21,6.86-1.38,1.64-3.1,2.79-3.1,2.79,0,0,.69.06,2.34-.85,1.65-.91,3.26-3.37,4.36-5.15s5.35-5.72,5.35-5.72c0,0-.47-.61-2.48-.5Z"/><path class="bu" d="M84.94,58.36c0,1.51-.88,3.95-2.93,3.95s-4.48-2.43-4.48-3.95,2.44-1.53,4.48-1.53,2.93.02,2.93,1.53Z"/><polyline class="bj" points="79.28 69.95 82.03 67.44 84.15 69.95"/><path class="bp" d="M69.89,46.86c1.28-7.88-3.55-15.34-10.11-16.67-8.5-1.72-13.11,4.06-16.44,4.82-3.33.76-7.17,0-7.17,0,2.17,1.66,4.3,2.87,6.36,3.32,0,.07,0,.13,0,.2-.69-.11-1.43-.19-2.18-.22-2.83-.11-3.5.5-3.5.5,0,0,6,3.94,7.56,5.72,1.56,1.78,3.83,4.24,6.17,5.15,2.33.91,3.3.85,3.3.85,0,0-2.43-1.14-4.38-2.79-1.27-1.4-2.99-3.83-2.92-6.65.15-5.79,7.88-6.94,10.96-7.22,1.97.05,4.05.59,6.09,1.94,3.69,2.43,4.47,9.84,4.62,13.66.05,1.41,2.44,1.7,2.44,1.7-1.06-1.58-1.04-2.66-.78-4.31Z"/></g><g id="af"><ellipse class="av" cx="209.7" cy="152.16" rx="16.11" ry="20.15"/><path class="bl" d="M166.19,140.23c-1.9,2.01-3.17,4.12-4.3,3.05s-.51-3.57,1.4-5.58,4.37-2.78,5.5-1.7-.7,2.22-2.6,4.24Z"/><path class="bl" d="M175.98,162.27c1.23-.97,1.96-2.23,2.93-1.01s.75,3-.48,3.97-3.01.76-3.97-.46.29-1.54,1.52-2.51Z"/><path class="bl" d="M204.63,140.23c-1.9,2.01-3.17,4.12-4.3,3.05s-.51-3.57,1.4-5.58c1.9-2.01,4.37-2.78,5.5-1.7s-.7,2.22-2.6,4.24Z"/><path class="bl" d="M214.42,162.27c1.23-.97,1.96-2.23,2.93-1.01s.75,3-.48,3.97-3.01.76-3.97-.46.29-1.54,1.52-2.51Z"/><ellipse class="av" cx="170.12" cy="152.14" rx="16.11" ry="20.15"/><line class="aq" x1="186.21" y1="152.97" x2="193.58" y2="152.97"/></g></svg>